#Comment line ignore any data following # character 
#Hierarchical Translation and Rotation (.htr) file 
[Header]	
#Header keywords are followed by a single value 
FileType HTR		#Single word string
DataType HTRS		#Translation followed by rotation and scale data
FileVersion 1		#integer
NumSegments 84		#integer
NumFrames 2		#integer
DataFrameRate 30		#integer, data frame rate in this file
EulerRotationOrder ZYX
CalibrationUnits mm
RotationUnits Degrees
GlobalAxisofGravity Y
BoneLengthAxis Y
ScaleFactor 1.00
[SegmentNames&Hierarchy]
#CHILD	PARENT
MASTER GLOBAL
root MASTER
chest root
L_mid_tent01 root
R_mid_tent01 root
spine01 root
Bip01_Neck chest
L_humerus chest
R_humerus chest
weapon_bone chest
Bip01_Head Bip01_Neck
eye_left_bone Bip01_Head
eye_right_bone Bip01_Head
L_forearm L_humerus
L_front_hand L_forearm
L_weapon_bone L_forearm
L_front_hand01_01 L_front_hand
L_front_hand02_01 L_front_hand
L_front_hand03_01 L_front_hand
L_front_hand01_02 L_front_hand01_01
L_front_hand02_02 L_front_hand02_01
L_front_hand03_02 L_front_hand03_01
R_forearm R_humerus
R_front_hand R_forearm
R_weapon_bone R_forearm
R_front_hand01_01 R_front_hand
R_front_hand02_01 R_front_hand
R_front_hand03_01 R_front_hand
R_front_hand01_02 R_front_hand01_01
R_front_hand02_02 R_front_hand02_01
R_front_hand03_02 R_front_hand03_01
null_rope01_connect L_mid_tent01
Rope1_Seg01 null_rope01_connect
Rope1_Seg02 Rope1_Seg01
Rope1_Seg03 Rope1_Seg02
Rope1_Seg04 Rope1_Seg03
Rope1_Seg05 Rope1_Seg04
Rope1_Seg06 Rope1_Seg05
Rope1_Seg07 Rope1_Seg06
Rope1_Seg09 Rope1_Seg07
L_mid_hand01 Rope1_Seg09
L_mid_hand02 Rope1_Seg09
L_mid_hand03 Rope1_Seg09
null_rope02_connect R_mid_tent01
Rope2_Seg01 null_rope02_connect
Rope2_Seg02 Rope2_Seg01
Rope2_Seg03 Rope2_Seg02
Rope2_Seg04 Rope2_Seg03
Rope2_Seg05 Rope2_Seg04
Rope2_Seg06 Rope2_Seg05
Rope2_Seg07 Rope2_Seg06
Rope2_Seg09 Rope2_Seg07
R_mid_hand01 Rope2_Seg09
R_mid_hand02 Rope2_Seg09
R_mid_hand03 Rope2_Seg09
spine02 spine01
spine03 spine02
pelvis spine03
null_rope03_connect pelvis
null_rope04_connect pelvis
Rope3_Seg01 null_rope03_connect
Rope3_Seg02 Rope3_Seg01
Rope3_Seg03 Rope3_Seg02
Rope3_Seg04 Rope3_Seg03
Rope3_Seg05 Rope3_Seg04
Rope3_Seg06 Rope3_Seg05
Rope3_Seg07 Rope3_Seg06
Rope3_Seg08 Rope3_Seg07
Rope3_Seg09 Rope3_Seg08
R_rear_hand01 Rope3_Seg09
R_rear_hand02 Rope3_Seg09
R_rear_hand03 Rope3_Seg09
Rope4_Seg01 null_rope04_connect
Rope4_Seg02 Rope4_Seg01
Rope4_Seg03 Rope4_Seg02
Rope4_Seg04 Rope4_Seg03
Rope4_Seg05 Rope4_Seg04
Rope4_Seg06 Rope4_Seg05
Rope4_Seg07 Rope4_Seg06
Rope4_Seg08 Rope4_Seg07
Rope4_Seg09 Rope4_Seg08
L_rear_hand01 Rope4_Seg09
L_rear_hand02 Rope4_Seg09
L_rear_hand03 Rope4_Seg09
[BasePosition]
#SegmentName Tx, Ty, Tz, Rx, Ry, Rz, BoneLength
MASTER 0.000000 0.000000 0.000000 -90.000000 0.000000 0.000000 10.000000 
root 0.000000 0.000000 0.000000 0.000000 0.000000 0.000000 10.000000 
chest 0.000000 0.000000 0.000000 0.000000 0.000000 0.000000 10.000000 
L_mid_tent01 0.000000 0.000000 0.000000 0.000000 0.000000 0.000000 10.000000 
R_mid_tent01 0.000000 0.000000 0.000000 0.000000 0.000000 0.000000 10.000000 
spine01 0.000000 0.000000 0.000000 0.000000 0.000000 0.000000 10.000000 
Bip01_Neck 0.000000 0.000000 0.000000 0.000000 0.000000 0.000000 10.000000 
L_humerus 0.000000 0.000000 0.000000 0.000000 0.000000 0.000000 10.000000 
R_humerus 0.000000 0.000000 0.000000 0.000000 0.000000 0.000000 10.000000 
weapon_bone 0.000000 0.000000 0.000000 0.000000 0.000000 0.000000 10.000000 
Bip01_Head 0.000000 0.000000 0.000000 0.000000 0.000000 0.000000 10.000000 
eye_left_bone 0.000000 0.000000 0.000000 0.000000 0.000000 0.000000 10.000000 
eye_right_bone 0.000000 0.000000 0.000000 0.000000 0.000000 0.000000 10.000000 
L_forearm 0.000000 0.000000 0.000000 0.000000 0.000000 0.000000 10.000000 
L_front_hand 0.000000 0.000000 0.000000 0.000000 0.000000 0.000000 10.000000 
L_weapon_bone 0.000000 0.000000 0.000000 0.000000 0.000000 0.000000 10.000000 
L_front_hand01_01 0.000000 0.000000 0.000000 0.000000 0.000000 0.000000 10.000000 
L_front_hand02_01 0.000000 0.000000 0.000000 0.000000 0.000000 0.000000 10.000000 
L_front_hand03_01 0.000000 0.000000 0.000000 0.000000 0.000000 0.000000 10.000000 
L_front_hand01_02 0.000000 0.000000 0.000000 0.000000 0.000000 0.000000 10.000000 
L_front_hand02_02 0.000000 0.000000 0.000000 0.000000 0.000000 0.000000 10.000000 
L_front_hand03_02 0.000000 0.000000 0.000000 0.000000 0.000000 0.000000 10.000000 
R_forearm 0.000000 0.000000 0.000000 0.000000 0.000000 0.000000 10.000000 
R_front_hand 0.000000 0.000000 0.000000 0.000000 0.000000 0.000000 10.000000 
R_weapon_bone 0.000000 0.000000 0.000000 0.000000 0.000000 0.000000 10.000000 
R_front_hand01_01 0.000000 0.000000 0.000000 0.000000 0.000000 0.000000 10.000000 
R_front_hand02_01 0.000000 0.000000 0.000000 0.000000 0.000000 0.000000 10.000000 
R_front_hand03_01 0.000000 0.000000 0.000000 0.000000 0.000000 0.000000 10.000000 
R_front_hand01_02 0.000000 0.000000 0.000000 0.000000 0.000000 0.000000 10.000000 
R_front_hand02_02 0.000000 0.000000 0.000000 0.000000 0.000000 0.000000 10.000000 
R_front_hand03_02 0.000000 0.000000 0.000000 0.000000 0.000000 0.000000 10.000000 
null_rope01_connect 0.000000 0.000000 0.000000 0.000000 0.000000 0.000000 10.000000 
Rope1_Seg01 0.000000 0.000000 0.000000 0.000000 0.000000 0.000000 10.000000 
Rope1_Seg02 0.000000 0.000000 0.000000 0.000000 0.000000 0.000000 10.000000 
Rope1_Seg03 0.000000 0.000000 0.000000 0.000000 0.000000 0.000000 10.000000 
Rope1_Seg04 0.000000 0.000000 0.000000 0.000000 0.000000 0.000000 10.000000 
Rope1_Seg05 0.000000 0.000000 0.000000 0.000000 0.000000 0.000000 10.000000 
Rope1_Seg06 0.000000 0.000000 0.000000 0.000000 0.000000 0.000000 10.000000 
Rope1_Seg07 0.000000 0.000000 0.000000 0.000000 0.000000 0.000000 10.000000 
Rope1_Seg09 0.000000 0.000000 0.000000 0.000000 0.000000 0.000000 10.000000 
L_mid_hand01 0.000000 0.000000 0.000000 0.000000 0.000000 0.000000 10.000000 
L_mid_hand02 0.000000 0.000000 0.000000 0.000000 0.000000 0.000000 10.000000 
L_mid_hand03 0.000000 0.000000 0.000000 0.000000 0.000000 0.000000 10.000000 
null_rope02_connect 0.000000 0.000000 0.000000 0.000000 0.000000 0.000000 10.000000 
Rope2_Seg01 0.000000 0.000000 0.000000 0.000000 0.000000 0.000000 10.000000 
Rope2_Seg02 0.000000 0.000000 0.000000 0.000000 0.000000 0.000000 10.000000 
Rope2_Seg03 0.000000 0.000000 0.000000 0.000000 0.000000 0.000000 10.000000 
Rope2_Seg04 0.000000 0.000000 0.000000 0.000000 0.000000 0.000000 10.000000 
Rope2_Seg05 0.000000 0.000000 0.000000 0.000000 0.000000 0.000000 10.000000 
Rope2_Seg06 0.000000 0.000000 0.000000 0.000000 0.000000 0.000000 10.000000 
Rope2_Seg07 0.000000 0.000000 0.000000 0.000000 0.000000 0.000000 10.000000 
Rope2_Seg09 0.000000 0.000000 0.000000 0.000000 0.000000 0.000000 10.000000 
R_mid_hand01 0.000000 0.000000 0.000000 0.000000 0.000000 0.000000 10.000000 
R_mid_hand02 0.000000 0.000000 0.000000 0.000000 0.000000 0.000000 10.000000 
R_mid_hand03 0.000000 0.000000 0.000000 0.000000 0.000000 0.000000 10.000000 
spine02 0.000000 0.000000 0.000000 0.000000 0.000000 0.000000 10.000000 
spine03 0.000000 0.000000 0.000000 0.000000 0.000000 0.000000 10.000000 
pelvis 0.000000 0.000000 0.000000 0.000000 0.000000 0.000000 10.000000 
null_rope03_connect 0.000000 0.000000 0.000000 0.000000 0.000000 0.000000 10.000000 
null_rope04_connect 0.000000 0.000000 0.000000 0.000000 0.000000 0.000000 10.000000 
Rope3_Seg01 0.000000 0.000000 0.000000 0.000000 0.000000 0.000000 10.000000 
Rope3_Seg02 0.000000 0.000000 0.000000 0.000000 0.000000 0.000000 10.000000 
Rope3_Seg03 0.000000 0.000000 0.000000 0.000000 0.000000 0.000000 10.000000 
Rope3_Seg04 0.000000 0.000000 0.000000 0.000000 0.000000 0.000000 10.000000 
Rope3_Seg05 0.000000 0.000000 0.000000 0.000000 0.000000 0.000000 10.000000 
Rope3_Seg06 0.000000 0.000000 0.000000 0.000000 0.000000 0.000000 10.000000 
Rope3_Seg07 0.000000 0.000000 0.000000 0.000000 0.000000 0.000000 10.000000 
Rope3_Seg08 0.000000 0.000000 0.000000 0.000000 0.000000 0.000000 10.000000 
Rope3_Seg09 0.000000 0.000000 0.000000 0.000000 0.000000 0.000000 10.000000 
R_rear_hand01 0.000000 0.000000 0.000000 0.000000 0.000000 0.000000 10.000000 
R_rear_hand02 0.000000 0.000000 0.000000 0.000000 0.000000 0.000000 10.000000 
R_rear_hand03 0.000000 0.000000 0.000000 0.000000 0.000000 0.000000 10.000000 
Rope4_Seg01 0.000000 0.000000 0.000000 0.000000 0.000000 0.000000 10.000000 
Rope4_Seg02 0.000000 0.000000 0.000000 0.000000 0.000000 0.000000 10.000000 
Rope4_Seg03 0.000000 0.000000 0.000000 0.000000 0.000000 0.000000 10.000000 
Rope4_Seg04 0.000000 0.000000 0.000000 0.000000 0.000000 0.000000 10.000000 
Rope4_Seg05 0.000000 0.000000 0.000000 0.000000 0.000000 0.000000 10.000000 
Rope4_Seg06 0.000000 0.000000 0.000000 0.000000 0.000000 0.000000 10.000000 
Rope4_Seg07 0.000000 0.000000 0.000000 0.000000 0.000000 0.000000 10.000000 
Rope4_Seg08 0.000000 0.000000 0.000000 0.000000 0.000000 0.000000 10.000000 
Rope4_Seg09 0.000000 0.000000 0.000000 0.000000 0.000000 0.000000 10.000000 
L_rear_hand01 0.000000 0.000000 0.000000 0.000000 0.000000 0.000000 10.000000 
L_rear_hand02 0.000000 0.000000 0.000000 0.000000 0.000000 0.000000 10.000000 
L_rear_hand03 0.000000 0.000000 0.000000 0.000000 0.000000 0.000000 10.000000 
#Beginning of Data. Separated by tabs
#Fr	Tx	Ty	Tz	Rx	Ry	Rz	SF
[MASTER]
43 312.030945 5761.843750 2163.627930 0.001660 0.001660 0.001660 6162.587891
44 312.030945 5761.843750 2163.627930 0.001660 0.001660 0.001660 6162.587891
[root]
43 628.118103 -117.306519 546.129456 -43.397591 -43.352314 -62.064140 840.565613
44 628.118103 -117.306519 546.129456 -43.397591 -43.352314 -62.064140 840.565613
[chest]
43 -84.512650 -34.090519 0.000000 29.108437 -47.146847 173.373276 91.129311
44 -84.512650 -34.090519 0.000000 29.108437 -47.146847 173.373276 91.129311
[L_mid_tent01]
43 27.299446 22.179413 -249.918686 -7.021732 17.248100 70.025894 252.381729
44 27.299456 22.179417 -249.918686 -6.916131 17.291752 70.261368 252.381729
[R_mid_tent01]
43 23.228794 24.509907 226.238495 152.722961 -42.781147 71.275314 228.744751
44 23.228794 24.509907 226.238495 152.770874 -42.729580 71.520760 228.744751
[spine01]
43 -0.361383 -0.195265 0.000000 -0.000001 -0.000007 22.052340 0.410763
44 -0.361383 -0.195265 0.000000 -0.000001 -0.000007 22.052340 0.410763
[Bip01_Neck]
43 165.484543 71.581718 0.000119 176.643677 -1.657967 43.431911 180.302734
44 165.484543 71.581718 0.000119 176.643677 -1.657967 43.431911 180.302734
[L_humerus]
43 -13.983130 -135.272980 -120.471481 164.828308 61.047234 -102.050644 181.680161
44 -13.983130 -135.272980 -120.471481 164.670349 61.412731 -102.228836 181.680161
[R_humerus]
43 -13.983309 -135.273102 125.287651 -175.839645 -44.154709 -88.445801 184.909012
44 -13.983309 -135.273102 125.287651 -175.812592 -44.558243 -88.482948 184.909012
[weapon_bone]
43 235.964890 -300.705902 0.000000 0.000000 -89.951546 -128.212341 382.234833
44 235.964890 -300.705902 0.000000 0.000000 -89.951546 -128.212341 382.234833
[Bip01_Head]
43 213.390839 185.862320 9.879396 13.107246 -2.166770 -48.700684 283.157288
44 213.393631 185.854736 9.977606 13.107245 -2.166770 -48.700680 283.157867
[eye_left_bone]
43 -24.626970 125.451866 -64.772606 0.000000 -90.000000 -99.840431 143.318359
44 -24.626970 125.451866 -64.772606 0.000000 -90.000000 -99.840431 143.318359
[eye_right_bone]
43 -24.626970 125.451866 64.327362 0.000000 -89.965736 80.156380 143.117676
44 -24.626970 125.451866 64.327362 0.000000 -89.965736 80.156380 143.117676
[L_forearm]
43 322.776093 0.000000 -0.000119 0.000428 -0.002308 -111.005806 322.776093
44 322.776093 0.000000 -0.000119 0.000427 -0.002308 -110.960007 322.776093
[L_front_hand]
43 241.149185 -0.042021 -3.300071 -178.667953 -1.835447 -27.422350 241.171753
44 241.149185 -0.042021 -3.300071 -178.667953 -1.835447 -27.422350 241.171753
[L_weapon_bone]
43 156.183838 0.000000 0.000000 0.000014 0.000007 0.000001 156.183838
44 156.183838 0.000000 0.000000 0.000014 0.000007 0.000001 156.183838
[L_front_hand01_01]
43 86.095154 20.947098 -0.655860 -0.366594 -0.477154 75.385574 88.609184
44 86.095154 20.947098 -0.655860 -0.366594 -0.477154 75.385582 88.609184
[L_front_hand02_01]
43 86.935165 -11.437475 24.513514 154.399796 -59.883835 -61.369587 91.046425
44 86.935165 -11.437475 24.513514 154.399796 -59.883835 -61.369587 91.046425
[L_front_hand03_01]
43 86.637497 -14.123976 -20.424902 -153.913849 58.118122 -62.702866 90.126129
44 86.637497 -14.123976 -20.424902 -153.913849 58.118122 -62.702866 90.126129
[L_front_hand01_02]
43 71.020905 -0.000179 0.000030 0.000334 -0.002323 -106.379005 71.020905
44 71.020905 -0.000179 0.000030 0.000334 -0.002323 -106.379684 71.020905
[L_front_hand02_02]
43 71.020927 -0.000119 0.000060 0.000334 -0.002323 -106.379005 71.020927
44 71.020927 -0.000119 0.000060 0.000334 -0.002323 -106.379684 71.020927
[L_front_hand03_02]
43 71.020905 -0.000060 0.000060 0.000334 -0.002323 -106.379005 71.020905
44 71.020905 -0.000060 0.000060 0.000334 -0.002323 -106.379684 71.020905
[R_forearm]
43 322.776428 -0.000060 0.000030 0.201180 0.067953 -109.651482 322.776428
44 322.776428 -0.000060 0.000030 0.201203 0.067885 -109.612579 322.776428
[R_front_hand]
43 238.847015 -0.006795 2.210259 -2.635298 -10.645461 -26.312506 238.857239
44 238.847015 -0.006795 2.210259 -2.635298 -10.645461 -26.312506 238.857239
[R_weapon_bone]
43 155.664093 0.002503 -0.000030 0.003487 0.001180 -90.988930 155.664078
44 155.664093 0.002503 -0.000030 0.003487 0.001180 -90.988930 155.664078
[R_front_hand01_01]
43 87.624611 14.231146 22.918642 -154.633484 -59.950607 61.746033 91.683487
44 87.624611 14.231146 22.918642 -154.633499 -59.950634 61.746063 91.683487
[R_front_hand02_01]
43 89.356956 14.367283 -19.491137 154.602676 58.302849 63.744400 92.579636
44 89.356956 14.367283 -19.491137 154.602661 58.302849 63.744389 92.579636
[R_front_hand03_01]
43 87.286232 -22.307278 -0.143439 0.162155 -0.423168 -75.767921 90.091743
44 87.286232 -22.307278 -0.143439 0.162155 -0.423168 -75.767921 90.091743
[R_front_hand01_02]
43 71.020905 0.000060 0.000119 0.002323 -0.000334 106.381714 71.020905
44 71.020905 0.000060 0.000119 0.002323 -0.000334 106.381714 71.020905
[R_front_hand02_02]
43 71.020844 -0.000030 -0.000119 0.002323 -0.000334 106.381714 71.020836
44 71.020844 -0.000030 -0.000119 0.002323 -0.000334 106.381714 71.020836
[R_front_hand03_02]
43 71.020905 0.000000 0.000030 0.002323 -0.000334 106.381714 71.020905
44 71.020905 0.000000 0.000030 0.002323 -0.000334 106.381714 71.020905
[null_rope01_connect]
43 328.732483 0.000000 -0.000238 64.874023 -38.580715 -7.532447 328.732483
44 328.732483 0.000000 -0.000238 64.834946 -38.601482 -7.733116 328.732483
[Rope1_Seg01]
43 0.000038 -0.000637 0.000153 41.855679 31.814461 -125.941681 0.000656
44 0.000038 -0.000651 0.000153 41.991730 31.542398 -125.793442 0.000670
[Rope1_Seg02]
43 139.999863 -0.000179 0.000000 4.863037 20.968447 -4.173824 139.999863
44 139.999863 -0.000179 0.000000 4.883722 21.065886 -4.292524 139.999863
[Rope1_Seg03]
43 139.999924 0.000060 -0.000060 -0.513938 15.692820 -9.064836 139.999924
44 139.999924 0.000060 -0.000060 -0.542519 15.711619 -9.224339 139.999924
[Rope1_Seg04]
43 139.999924 -0.000060 -0.000119 -1.368370 13.179385 -3.751790 139.999924
44 139.999924 -0.000060 -0.000119 -1.378556 13.223644 -3.783557 139.999924
[Rope1_Seg05]
43 139.999832 0.000119 -0.000060 -9.942127 34.938934 8.267518 139.999832
44 139.999832 0.000119 -0.000060 -9.984656 34.989357 8.308632 139.999832
[Rope1_Seg06]
43 139.999954 0.000119 -0.000060 -13.917249 26.068546 13.029902 139.999954
44 139.999954 0.000119 -0.000060 -13.899179 25.988453 13.026030 139.999954
[Rope1_Seg07]
43 139.999985 0.000060 0.000000 -6.335747 8.389936 6.946735 139.999985
44 139.999985 0.000060 0.000000 -6.320580 8.365815 6.934092 139.999985
[Rope1_Seg09]
43 121.602913 0.000119 -0.000089 -89.793175 -1.359789 0.847147 121.602913
44 121.602913 0.000119 -0.000089 -89.793175 -1.359789 0.847147 121.602913
[L_mid_hand01]
43 103.859421 1.038730 8.195221 130.544373 -67.584534 -38.866943 104.187431
44 103.859421 1.038730 8.195221 130.544373 -67.584534 -38.866943 104.187431
[L_mid_hand02]
43 105.572853 -4.139662 -10.864139 -168.923172 43.409309 -73.498886 106.211075
44 105.572853 -4.139662 -10.864139 -168.923172 43.409309 -73.498886 106.211075
[L_mid_hand03]
43 104.641464 17.579376 -3.913581 -6.012627 17.808178 74.893677 106.179977
44 104.641464 17.579376 -3.913581 -6.012627 17.808178 74.893677 106.179977
[null_rope02_connect]
43 328.732849 0.000179 -0.000119 -97.677551 -19.683308 -7.464410 328.732849
44 328.732849 0.000179 -0.000119 -97.901146 -19.744177 -7.208973 328.732849
[Rope2_Seg01]
43 0.000076 -0.000561 0.000000 47.772381 -28.437817 118.362068 0.000566
44 0.000076 -0.000577 0.000000 47.672276 -28.599051 118.400063 0.000582
[Rope2_Seg02]
43 139.999741 -0.000060 -0.000119 9.470802 -3.951737 -10.433885 139.999756
44 139.999741 -0.000060 -0.000119 9.423855 -3.931253 -10.430161 139.999756
[Rope2_Seg03]
43 140.000107 0.000030 0.000000 20.786640 -12.807167 -22.703312 140.000107
44 140.000107 0.000030 0.000000 20.753389 -12.764004 -22.751213 140.000107
[Rope2_Seg04]
43 139.999802 0.000000 -0.000060 23.411720 -33.263905 -32.037663 139.999802
44 139.999802 0.000000 -0.000060 23.491245 -33.224216 -32.210503 139.999802
[Rope2_Seg05]
43 139.999985 -0.000060 0.000119 1.574798 -10.128991 -9.687740 139.999985
44 139.999985 -0.000060 0.000119 1.582001 -10.133240 -9.708406 139.999985
[Rope2_Seg06]
43 139.999893 -0.000030 -0.000119 0.371184 1.800929 -10.915674 139.999893
44 139.999893 -0.000030 -0.000119 0.367041 1.795471 -10.895875 139.999893
[Rope2_Seg07]
43 139.999893 0.000060 -0.000060 2.178968 -4.874631 -12.829148 139.999893
44 139.999893 0.000060 -0.000060 2.179919 -4.881959 -12.831855 139.999893
[Rope2_Seg09]
43 121.338966 0.000089 -0.000060 33.793236 -1.359788 -0.847141 121.338966
44 121.338966 0.000089 -0.000060 33.793236 -1.359788 -0.847141 121.338966
[R_mid_hand01]
43 104.680779 11.144459 -10.335981 -16.212067 45.237247 70.462852 105.778534
44 104.680779 11.144459 -10.335981 -16.212055 45.237240 70.462852 105.778534
[R_mid_hand02]
43 104.070427 2.443552 8.231699 49.067387 -67.749794 39.286457 104.424065
44 104.070427 2.443552 8.231699 49.067371 -67.749794 39.286461 104.424065
[R_mid_hand03]
43 106.028137 -11.221827 -5.996406 -177.101105 15.551029 -76.585594 106.788818
44 106.028137 -11.221827 -5.996406 -177.101105 15.551026 -76.585571 106.788818
[spine02]
43 129.756927 0.001550 0.000119 0.519014 -4.026385 -15.195992 129.756927
44 129.756927 0.001550 0.000119 0.514479 -4.026980 -15.136765 129.756927
[spine03]
43 78.613670 0.081712 -4.898914 1.991556 3.783571 17.892511 78.766205
44 78.613663 0.081714 -4.898912 1.989879 3.784950 17.859554 78.766197
[pelvis]
43 169.435242 0.051022 0.000000 -0.001808 -0.191393 -3.846802 169.435257
44 169.435242 0.051022 0.000000 0.000746 -0.191341 -4.389634 169.435257
[null_rope03_connect]
43 -1.257226 -2.466202 137.391083 54.622490 -20.774006 47.793789 137.418976
44 -1.257226 -2.466202 137.391083 54.623714 -20.778196 48.328182 137.418976
[null_rope04_connect]
43 -1.259640 -2.480268 -137.844437 54.622490 -20.774006 47.793789 137.872513
44 -1.259640 -2.480268 -137.844437 54.623714 -20.778196 48.328182 137.872513
[Rope3_Seg01]
43 -0.000033 0.000000 -0.000077 92.539505 -56.426487 -146.328644 0.000084
44 -0.000033 0.000000 -0.000079 93.265144 -56.882999 -146.694809 0.000086
[Rope3_Seg02]
43 139.999924 -0.000119 0.000060 4.014213 3.164343 13.355230 139.999924
44 139.999924 -0.000119 0.000060 3.633106 3.417627 12.838914 139.999924
[Rope3_Seg03]
43 139.999924 -0.000119 0.000119 3.602621 5.684731 20.238487 139.999924
44 139.999924 -0.000119 0.000119 3.419172 5.970982 19.651093 139.999924
[Rope3_Seg04]
43 139.999924 0.000119 0.000000 1.398986 5.487396 26.949984 139.999924
44 139.999924 0.000119 0.000000 1.578151 6.091667 26.740562 139.999924
[Rope3_Seg05]
43 139.999924 -0.000238 0.000060 1.071664 7.023600 8.513799 139.999924
44 139.999924 -0.000238 0.000060 1.230163 7.474049 8.520670 139.999924
[Rope3_Seg06]
43 139.999893 -0.000119 -0.000060 5.709174 12.051758 -5.238391 139.999893
44 139.999893 -0.000119 -0.000060 5.485606 11.516685 -4.846144 139.999893
[Rope3_Seg07]
43 139.999771 0.000060 -0.000119 5.840842 11.306217 -2.863774 139.999771
44 139.999771 0.000060 -0.000119 5.249418 10.196558 -1.761580 139.999771
[Rope3_Seg08]
43 139.999985 -0.000060 0.000000 4.884648 8.056929 -1.941958 139.999985
44 139.999985 -0.000060 0.000000 4.406634 7.219880 -1.207997 139.999985
[Rope3_Seg09]
43 90.185997 -0.000179 -0.000060 89.793228 -1.359877 -0.847183 90.185997
44 90.185997 -0.000179 -0.000060 89.793228 -1.359877 -0.847183 90.185997
[R_rear_hand01]
43 103.366196 -6.073594 -10.757982 -177.714203 24.565966 -73.910957 104.101845
44 103.366196 -6.073594 -10.757982 -177.714203 24.565960 -73.910950 104.101845
[R_rear_hand02]
43 100.509819 12.039542 -7.992327 -12.874829 36.868488 72.167213 101.543350
44 100.509819 12.039542 -7.992327 -12.874829 36.868488 72.167213 101.543350
[R_rear_hand03]
43 101.539970 5.215704 5.435467 71.484581 -71.816628 21.513813 101.819031
44 101.539970 5.215704 5.435467 71.484581 -71.816628 21.513828 101.819031
[Rope4_Seg01]
43 -0.000000 -0.000637 -0.000153 -108.108269 19.211784 -134.214905 0.000655
44 -0.000000 -0.000651 -0.000153 -108.111992 19.236126 -134.166183 0.000668
[Rope4_Seg02]
43 139.999985 0.000060 0.000119 -0.222124 -10.189764 -3.554142 139.999985
44 139.999985 0.000060 0.000119 -0.198647 -10.225463 -3.605950 139.999985
[Rope4_Seg03]
43 139.999924 0.000000 -0.000238 0.377877 -15.528842 -5.561148 139.999924
44 139.999924 0.000000 -0.000238 0.403518 -15.584232 -5.629469 139.999924
[Rope4_Seg04]
43 139.999985 0.000000 0.000119 0.696504 -16.015606 -4.297607 139.999985
44 139.999985 0.000000 0.000119 0.713441 -16.018677 -4.363752 139.999985
[Rope4_Seg05]
43 139.999802 -0.000060 -0.000119 2.326097 -22.482103 -10.553944 139.999802
44 139.999802 -0.000060 -0.000119 2.369264 -22.764729 -10.823485 139.999802
[Rope4_Seg06]
43 139.999924 0.000000 0.000060 0.870906 -32.687656 -19.820745 139.999924
44 139.999924 0.000000 0.000060 0.486641 -32.686401 -19.937788 139.999924
[Rope4_Seg07]
43 139.999802 0.000000 0.000000 -46.975388 -14.692645 -9.350317 139.999802
44 139.999802 0.000000 0.000000 -52.941124 -14.371229 -9.327188 139.999802
[Rope4_Seg08]
43 139.999924 0.000000 0.000119 -102.583687 -1.287975 -7.047561 139.999924
44 139.999924 0.000000 0.000119 -96.167213 -0.478113 -7.063775 139.999924
[Rope4_Seg09]
43 90.185791 0.000060 0.000060 -135.617828 2.228885 0.850567 90.185791
44 90.185791 0.000060 0.000060 -135.617828 2.228885 0.850567 90.185791
[L_rear_hand01]
43 101.696655 -8.392275 -7.654577 -12.874833 -36.868488 107.832779 102.329041
44 101.696655 -8.392275 -7.654577 -12.874829 -36.868488 107.832764 102.329041
[L_rear_hand02]
43 102.726799 -1.568258 5.773216 71.484619 71.816643 158.486160 102.900848
44 102.726799 -1.568258 5.773216 71.484581 71.816628 158.486160 102.900848
[L_rear_hand03]
43 104.552910 9.721220 -10.420293 -177.714203 -24.565960 -106.089035 105.519653
44 104.552910 9.721220 -10.420293 -177.714203 -24.565960 -106.089035 105.519653
